# xmcd CD database file
#
# Track frame offsets:
#	150
#	57655
#	129952
#	178672
#	248070
#
# Disc length: 4087 seconds
#
# Revision: 0
# Processed by: cddbd v1.5.1PL0 Copyright (c) Steve Scherf et al.
# Submitted via: CDex 1.51
#
DISCID=400ff505
DTITLE=Frank Catalano - Live At The Green Mill
DYEAR=2001
DGENRE=Jazz
TTITLE0=Softly As In A Morning Sunrise
TTITLE1=Killer Joe
TTITLE2=Bubble House
TTITLE3=Impressions
TTITLE4=The Theme
EXTD=YEAR: 2001
EXTT0=
EXTT1=
EXTT2=
EXTT3=
EXTT4=
PLAYORDER=
